# xmcd
#
# Track frame offsets:
#	150
#	22724
#	73778
#	83763
#	125795
#	138328
#	161669
#	178572
#	240136
#
# Disc length: 4351 seconds
#
# Revision: 0
# Processed by: cddbd v1.5.2PL0 Copyright (c) Steve Scherf et al.
# Submitted via: EZCDAudioConverter 2.0.7.1
#
DISCID=6a10fd09
DTITLE=Schubert - Les Plus Grands Moments
DYEAR=1900
DGENRE=
TTITLE0=Ave Maria
TTITLE1=Symphonie no.8 Inachevee
TTITLE2=Moment Musical Op. 94 no.3
TTITLE3=Trio Op.100
TTITLE4=Who is Sylvia
TTITLE5=Impromptu Op.90 no.3
TTITLE6=Standchen
TTITLE7=Symphonie no.9 La Grande
TTITLE8=Fantaisie en Fa Mineur
EXTD=
EXTT0=
EXTT1=
EXTT2=
EXTT3=
EXTT4=
EXTT5=
EXTT6=
EXTT7=
EXTT8=
PLAYORDER=
